<?xml version="1.0" encoding="utf-8"?>
<!-- Generator: Adobe Illustrator 23.0.3, SVG Export Plug-In . SVG Version: 6.00 Build 0)  -->
<svg version="1.1" id="Layer_1" xmlns="http://www.w3.org/2000/svg" xmlns:xlink="http://www.w3.org/1999/xlink" x="0px" y="0px"
	 width="173.2px" height="54.8px" viewBox="0 0 173.2 54.8" style="enable-background:new 0 0 173.2 54.8;" xml:space="preserve">
<style type="text/css">
	.st0{fill-rule:evenodd;clip-rule:evenodd;fill:#323232;}
	.st1{fill:#323232;}
	.st2{fill:#FA8B0F;}
	.st3{fill-rule:evenodd;clip-rule:evenodd;fill:#FA8B0F;}
	.st4{fill:none;stroke:#D8DFE3;}
</style>
<g>
	<path class="st0" d="M20,10.6c-0.8-1-1.9-1.3-2.6-0.8c-0.7,0.5-0.6,1.7,0.2,2.7c0.8,1,1.9,1.3,2.6,0.8S20.8,11.6,20,10.6z"/>
	<path class="st1" d="M20.4,29.1c0,0-4-1.5-4.1-6.1c0-3.9,3.2-5.7,3.3-5.8l0.1-0.1L19.7,17c-1.8-2.6-4.5-3.1-5.7-3.1v0h-0.1
		c-0.1,0-0.2,0-0.7,1.9c-0.2,0.8-0.6,2.4-1,4.4c-0.7,3.2-1.5,7.8-1.5,11.5c0,4,0.9,6,2.8,6.1c2.3-0.1,3.7-2.1,4.9-3.9
		c1.5-2.2,2.1-4.4,2.2-4.5l0-0.1L20.4,29.1z"/>
	<path class="st2" d="M20,29c0,0.1-0.6,2.2-2.2,4.4c-1.3,1.9-2.6,3.8-4.8,3.8c-6.2,0,0.4-24.3,0.4-23.5c1,0,3.9,0.4,5.7,3.1
		c-0.2,0.1-3.4,2-3.4,5.9C15.9,27.4,20,29,20,29z"/>
	<path class="st3" d="M17.3,9.6c0.7-0.5,1.8-0.2,2.6,0.8c0.8,1,0.9,2.2,0.2,2.7c-0.7,0.5-1.8,0.2-2.6-0.8
		C16.7,11.4,16.6,10.2,17.3,9.6z"/>
	<path class="st1" d="M34.8,20c0,0-2.6-1.6-5.9-0.3c-3.3,1.2-3.4,1.7-3.4,2.7c0,1.2,2,2,3.1,2.2c1,0.2,7.2,0.9,8.1,1.6
		c0.8,0.6,1.7,1.4,1.7,3c0,1.7-5.5,5.9-10.9,7c-5.4,1.1-5.6,0.6-6.2,0.5c-0.8-0.1-2.6-2.7,0.3-2.6c3.5,0.2,9-0.3,12.5-3.7
		c1.6-1.9-1.2-2-1.2-2S22.4,27.3,22,22.4c-0.5-4.8,9.3-5.7,10-5.9c0,0,4.2-0.9,5,2.5c0.5,2-1.1,2.5-1.1,2.5s-0.8,0-0.9,0.2
		c-0.1,0.1-0.5-0.6-0.1-1.2C35.2,20.1,34.8,20,34.8,20z"/>
	<path class="st1" d="M47.9,17.4c-0.6,0.4-4.6,5.7-7,15c-1.7,6.5,4,1.4,4,1.4s3.1-2.9,3.9-2.8c0.8,0.1,1.5,1,2.1,3.4
		c0.6,2.4,0.8,2.4,0.8,2.4s1.4,1,1.4-0.7c0-1.7-0.2-1.8-0.3-2.5c0-0.7-0.3-4.1-2.6-4.8c-2.3-0.6-5.6,2.6-5.6,2.6s-1.6,1.2-0.9-0.8
		c0.7-2,4.3-10.2,5.8-11.6C51.2,17.5,49.9,16,47.9,17.4z"/>
	<path class="st1" d="M73.4,27.3c0,0-0.8-2.7,2.9-2.4c3.7,0.3,7.5,1.5,7.1,4c-0.4,2.5-5.8,5.9-7.4,6.2c-1.6,0.3-2.7-0.7-0.9-1.5
		c1.8-0.8,4.5-2.4,5.3-4.1c0.8-1.7-1.3-2.8-4.3-2.1c-1.2,1-4.2,14.7-4.5,15.3c0,0-0.2,0.7-1,1.2c-0.8,0.4-1.9,1.3-1.3-1.6
		C69.9,39.5,72.7,28.7,73.4,27.3z"/>
	<path class="st1" d="M66.1,26.3c0,0-0.5-2-3.1-0.9c-2.6,1.1-5.6,2.4-6.9,5.9c-1.3,3.5,1.2,4.8,5.3,3.8c4-1,6.3-4,6.7-5.3
		C68.4,28.7,68.4,26.6,66.1,26.3z M65.4,31c-1.9,2.2-6.5,3.2-7.2,2.2c-0.7-1,1.4-3.7,3.6-4.8s3.6-0.4,3.6-0.4S67.3,28.8,65.4,31z"/>
</g>
<line class="st4" x1="103.5" y1="5.1" x2="103.5" y2="48.7"/>
<g>
	<path d="M135.7,17.3c0-2.3,0.6-4.1,2.2-5.4c1.4-1.2,3.1-1.4,4.8-0.8c0.1,0,0.1,0,0.2,0.1c1,0.6,2,0.5,3,0c2.4-1.1,4.7-0.3,5.9,1.1
		c0.5,0.5,0.5,0.5-0.1,0.9c-2.7,2.1-2.4,6,0.6,7.6c0.4,0.2,0.4,0.3,0.3,0.7c-0.6,1.7-1.5,3.2-2.8,4.4c-0.8,0.8-1.8,1-2.9,0.6
		c-0.7-0.3-1.5-0.6-2.3-0.6c-0.7,0-1.3,0.2-1.9,0.4c-1.8,0.7-2.7,0.5-3.9-1C136.9,22.9,135.8,20.2,135.7,17.3z"/>
	<path d="M144.3,9.8c0.1-2.1,1.8-4,3.8-4.3c0.3,0,0.4,0,0.4,0.3c0,2.4-1.8,4.3-3.5,4.6C144.3,10.6,144.3,10.6,144.3,9.8z"/>
	<path d="M132,34c0-0.5-0.2-1-0.5-1.3c-0.4-0.3-1-0.5-1.7-0.5c-0.5,0-1,0-1.5,0.1l0,0v6.1h0.9V36c0.2,0,0.4,0,0.6,0
		c0.8,0,1.5-0.2,1.9-0.7C131.8,35,132,34.6,132,34z M129.6,35.3c-0.2,0-0.4,0-0.6-0.1V33c0.2,0,0.4-0.1,0.7-0.1
		c0.9,0,1.4,0.4,1.4,1.1C131.1,34.8,130.5,35.3,129.6,35.3z"/>
	<path d="M134.7,33.8c-0.5,0-0.9,0.3-1.2,0.8l0-0.7h-0.8V34c0,0.4,0,0.8,0,1.4v3h0.9V36c0-0.1,0-0.3,0-0.4c0.1-0.6,0.5-1,1-1
		c0.1,0,0.2,0,0.3,0l0.1,0v-0.9l0,0C134.8,33.9,134.8,33.8,134.7,33.8z"/>
	<path d="M137.3,33.8c-1.2,0-2.1,1-2.1,2.4c0,1.4,0.9,2.2,2.2,2.2c0.7,0,1.2-0.1,1.5-0.3l0,0l-0.2-0.7l-0.1,0
		c-0.3,0.1-0.6,0.2-1.2,0.2c-0.9,0-1.4-0.5-1.4-1.4h3l0-0.1c0-0.1,0-0.2,0-0.3C139.2,35,138.7,33.8,137.3,33.8z M137.3,34.5
		c0.3,0,0.5,0.1,0.7,0.3c0.3,0.3,0.3,0.7,0.3,0.9h-2.2C136.2,35.2,136.5,34.5,137.3,34.5z"/>
	<path d="M143.6,35.7c0-0.1,0-0.3,0.1-0.4c0.1-0.3,0.4-0.7,0.9-0.7c0.7,0,0.9,0.7,0.9,1.3v2.5h0.9v-2.6c0-1.4-0.8-1.9-1.5-1.9
		c-0.4,0-0.7,0.1-1,0.3c-0.2,0.1-0.3,0.3-0.5,0.5c-0.2-0.5-0.7-0.8-1.2-0.8c-0.6,0-1,0.2-1.3,0.7l0-0.6H140V34c0,0.3,0,0.7,0,1.2
		v3.2h0.9v-2.7c0-0.1,0-0.3,0.1-0.4c0.1-0.4,0.5-0.8,0.9-0.8c0.5,0,0.8,0.4,0.8,1.1v2.7h0.9V35.7z"/>
	<path d="M148.4,33.9h-0.9v4.5h0.9V33.9z"/>
	<path d="M147.9,33.3c0.2,0,0.3-0.1,0.4-0.2c0.1-0.1,0.1-0.2,0.1-0.4c0-0.3-0.2-0.5-0.5-0.5c-0.3,0-0.6,0.2-0.6,0.6
		C147.4,33.1,147.6,33.3,147.9,33.3z"/>
	<path d="M152.5,37.8l0,0.6h0.8v-0.1c0-0.3,0-0.7,0-1.2V34h-0.9v2.7c0,0.1,0,0.3-0.1,0.4c-0.1,0.3-0.5,0.7-1,0.7
		c-0.6,0-0.9-0.4-0.9-1.3V34h-0.9v2.6c0,1.8,1.1,2,1.5,2C151.8,38.5,152.3,38.1,152.5,37.8z"/>
	<path d="M159.3,33.8c-0.4,0-0.7,0.1-1,0.3c-0.2,0.1-0.3,0.3-0.5,0.5c-0.2-0.5-0.7-0.8-1.2-0.8c-0.6,0-1,0.2-1.3,0.7l0-0.6h-0.8V34
		c0,0.3,0,0.7,0,1.2v3.2h0.9v-2.7c0-0.1,0-0.3,0.1-0.4c0.1-0.4,0.5-0.8,0.9-0.8c0.5,0,0.9,0.4,0.9,1.1v2.7h0.9v-2.7
		c0-0.1,0-0.3,0.1-0.4c0.1-0.3,0.4-0.7,0.9-0.7c0.7,0,0.9,0.7,0.9,1.3v2.5h0.9v-2.6C160.8,34.4,160,33.8,159.3,33.8z"/>
	<path d="M134.1,46.4c-0.1-0.6-0.4-1-0.8-1.2c0.7-0.3,1.1-0.8,1.1-1.6c0-0.5-0.2-0.9-0.5-1.2c-0.4-0.4-0.9-0.5-1.8-0.5
		c-0.6,0-1.1,0-1.5,0.1l0,0v6.1h0.9v-2.6h0.7c0.7,0,1,0.3,1.2,1.1c0.2,0.9,0.3,1.3,0.4,1.5l0,0h0.9l0-0.1
		C134.5,47.8,134.3,47.2,134.1,46.4z M133.5,43.7c0,0.7-0.5,1.1-1.3,1.1h-0.7v-2.1c0.1,0,0.4-0.1,0.7-0.1
		C132.8,42.7,133.5,42.9,133.5,43.7z"/>
	<path d="M137.2,43.6c-1.2,0-2.1,1-2.1,2.4c0,1.4,0.9,2.2,2.2,2.2c0.7,0,1.2-0.1,1.5-0.3l0,0l-0.2-0.7l-0.1,0
		c-0.3,0.1-0.6,0.2-1.2,0.2c-0.9,0-1.4-0.5-1.4-1.4h3l0-0.1c0-0.1,0-0.2,0-0.3C139,44.7,138.5,43.6,137.2,43.6z M136,45.4
		c0.1-0.5,0.4-1.2,1.1-1.2c0.3,0,0.5,0.1,0.7,0.3c0.3,0.3,0.3,0.7,0.3,0.9L136,45.4L136,45.4z"/>
	<path d="M141.3,45.5c-0.5-0.2-0.8-0.4-0.8-0.7c0-0.3,0.3-0.5,0.7-0.5c0.4,0,0.7,0.2,0.8,0.2l0.1,0l0.2-0.7l0,0
		c-0.3-0.2-0.7-0.3-1.1-0.3c-0.9,0-1.5,0.5-1.5,1.3c0,0.6,0.4,1,1.2,1.3c0.6,0.2,0.8,0.4,0.8,0.7c0,0.4-0.3,0.6-0.8,0.6
		c-0.4,0-0.8-0.2-1-0.3l-0.1,0l-0.2,0.7l0,0c0.3,0.2,0.8,0.3,1.2,0.3c1,0,1.7-0.5,1.7-1.4C142.5,46.2,142.2,45.8,141.3,45.5z"/>
	<path d="M145.2,43.6c-1.2,0-2.1,1-2.1,2.4c0,1.4,0.9,2.2,2.2,2.2c0.7,0,1.2-0.1,1.5-0.3l0,0l-0.2-0.7l-0.1,0
		c-0.3,0.1-0.6,0.2-1.2,0.2c-0.9,0-1.4-0.5-1.4-1.4h3l0-0.1c0-0.1,0-0.2,0-0.3C147,44.7,146.5,43.6,145.2,43.6z M145.1,44.3
		c0.3,0,0.5,0.1,0.7,0.3c0.3,0.3,0.3,0.7,0.3,0.9H144C144,45,144.4,44.3,145.1,44.3z"/>
	<path d="M148.8,41.7h-0.9v6.5h0.9V41.7z"/>
	<path d="M150.9,41.7H150v6.5h0.9V41.7z"/>
	<path d="M153.9,43.6c-1.2,0-2.1,1-2.1,2.4c0,1.4,0.9,2.2,2.2,2.2c0.7,0,1.2-0.1,1.5-0.3l0,0l-0.2-0.7l-0.1,0
		c-0.3,0.1-0.6,0.2-1.2,0.2c-0.9,0-1.4-0.5-1.4-1.4h3l0-0.1c0-0.1,0-0.2,0-0.3C155.7,44.7,155.2,43.6,153.9,43.6z M153.8,44.3
		c0.3,0,0.5,0.1,0.7,0.3c0.3,0.3,0.3,0.7,0.3,0.9h-2.2C152.7,45,153,44.3,153.8,44.3z"/>
	<path d="M158.5,43.6c-0.5,0-0.9,0.3-1.2,0.8l0-0.7h-0.8v0.1c0,0.4,0,0.8,0,1.4v3h0.9v-2.4c0-0.1,0-0.2,0-0.4c0.1-0.6,0.5-1,1-1
		c0.1,0,0.2,0,0.3,0l0.1,0v-0.9l0,0C158.7,43.6,158.6,43.6,158.5,43.6z"/>
</g>
</svg>
