<svg width="28" height="25" viewBox="0 0 28 25" fill="none" xmlns="http://www.w3.org/2000/svg">
<mask id="path-1-inside-1" fill="white">
<path d="M8.91596 15.1947C8.91596 15.0361 8.85293 14.8839 8.74074 14.7717C8.62855 14.6595 8.47638 14.5965 8.31772 14.5965H4.5488C4.39013 14.5965 4.23797 14.6595 4.12577 14.7717C4.01358 14.8839 3.95055 15.0361 3.95055 15.1947V18.7244C3.95055 18.883 4.01358 19.0352 4.12577 19.1474C4.23797 19.2596 4.39013 19.3226 4.5488 19.3226H8.31772C8.47638 19.3226 8.62855 19.2596 8.74074 19.1474C8.85293 19.0352 8.91596 18.883 8.91596 18.7244V15.1947ZM5.14704 15.793H7.71948V18.1261H5.14704V15.793Z"/>
<path d="M23.9917 15.1947C23.9917 15.0361 23.9287 14.8839 23.8165 14.7717C23.7043 14.6595 23.5521 14.5965 23.3934 14.5965H19.6245C19.4659 14.5965 19.3137 14.6595 19.2015 14.7717C19.0893 14.8839 19.0263 15.0361 19.0263 15.1947V18.7244C19.0263 18.883 19.0893 19.0352 19.2015 19.1474C19.3137 19.2596 19.4659 19.3226 19.6245 19.3226H23.3934C23.5521 19.3226 23.7043 19.2596 23.8165 19.1474C23.9287 19.0352 23.9917 18.883 23.9917 18.7244V15.1947ZM20.2228 15.793H22.7952V18.1261H20.2228V15.793Z"/>
<path d="M27.9968 5.95068C27.9961 5.94566 27.9961 5.94069 27.9954 5.93567C27.9925 5.91485 27.9885 5.8942 27.9834 5.87381C27.9826 5.87022 27.982 5.86669 27.9809 5.8631C27.9673 5.81398 27.9473 5.76682 27.9216 5.72281L27.9206 5.7206L25.3445 1.35942C25.1853 1.09129 24.9591 0.869099 24.6882 0.714592C24.4173 0.560084 24.1109 0.47855 23.799 0.477966H4.67565C4.38673 0.47795 4.10208 0.547663 3.84587 0.681184C3.58966 0.814705 3.36946 1.00809 3.20397 1.24491L0.107774 5.68046C0.0999372 5.69158 0.0926386 5.70301 0.0855196 5.71474C0.0836052 5.71797 0.0815711 5.72108 0.0795371 5.72431C0.0735547 5.73484 0.0675723 5.74549 0.0621882 5.75643C0.060214 5.76044 0.0582996 5.76445 0.0562057 5.7684C0.051001 5.77947 0.0459159 5.79047 0.0413095 5.8019C0.0404719 5.80405 0.0397541 5.80627 0.0389166 5.80842C0.0309035 5.82932 0.0240531 5.85065 0.0183968 5.87231C0.0165423 5.87931 0.0145681 5.88625 0.0130127 5.89337C0.0110385 5.90199 0.00948309 5.91078 0.00792766 5.91957C0.00619276 5.92938 0.00469711 5.9392 0.0034408 5.94907C0.00248361 5.95637 0.00152644 5.9636 0.000928194 5.97096C-0.000627235 5.98783 0.000270099 6.00482 0.000150451 6.02187L0.00188543 6.02409V8.5367C0.00218455 9.52637 0.803829 10.349 1.79326 10.349H1.97638V24.2891C1.97441 24.3667 1.98794 24.4438 2.01619 24.5161C2.04444 24.5883 2.08684 24.6541 2.1409 24.7098C2.19496 24.7654 2.25958 24.8097 2.33098 24.84C2.40238 24.8703 2.47911 24.886 2.55668 24.8862H25.4121C25.5723 24.8871 25.7264 24.8249 25.8411 24.7133C25.9559 24.6016 26.0222 24.4492 26.0257 24.2891V10.349H26.2088C27.1983 10.349 27.9999 9.52637 27.9999 8.53676V6.02415C28.0003 5.99962 27.9993 5.97508 27.9968 5.95068ZM4.18509 1.93845C4.23981 1.85845 4.31291 1.79272 4.39826 1.74679C4.48361 1.70085 4.57873 1.67605 4.67565 1.67445H23.799C23.9036 1.67629 24.006 1.70508 24.0962 1.75802C24.1865 1.81096 24.2615 1.88627 24.3141 1.97668L26.3568 5.44337H1.74438L4.18509 1.93845ZM16.753 23.6897H11.2491V15.5537H16.753V23.6897ZM24.8292 23.6897H17.9494V14.961C17.9448 14.7996 17.8776 14.6463 17.7619 14.5336C17.6462 14.4209 17.4913 14.3576 17.3298 14.3572H10.6389C10.5607 14.3581 10.4834 14.3744 10.4115 14.4053C10.3397 14.4362 10.2746 14.481 10.2201 14.5371C10.1656 14.5932 10.1228 14.6596 10.094 14.7323C10.0653 14.8051 10.0512 14.8828 10.0526 14.961V23.6897H3.17287V10.349H24.8292V23.6897ZM26.2088 9.15247H1.79326C1.63325 9.14818 1.48132 9.08127 1.37013 8.96614C1.25894 8.851 1.19737 8.69682 1.19867 8.53676V6.63986H26.8034V8.53676C26.8047 8.69682 26.7431 8.851 26.632 8.96614C26.5208 9.08127 26.3688 9.14818 26.2088 9.15247Z"/>
</mask>
<path d="M8.91596 15.1947C8.91596 15.0361 8.85293 14.8839 8.74074 14.7717C8.62855 14.6595 8.47638 14.5965 8.31772 14.5965H4.5488C4.39013 14.5965 4.23797 14.6595 4.12577 14.7717C4.01358 14.8839 3.95055 15.0361 3.95055 15.1947V18.7244C3.95055 18.883 4.01358 19.0352 4.12577 19.1474C4.23797 19.2596 4.39013 19.3226 4.5488 19.3226H8.31772C8.47638 19.3226 8.62855 19.2596 8.74074 19.1474C8.85293 19.0352 8.91596 18.883 8.91596 18.7244V15.1947ZM5.14704 15.793H7.71948V18.1261H5.14704V15.793Z" fill="black"/>
<path d="M23.9917 15.1947C23.9917 15.0361 23.9287 14.8839 23.8165 14.7717C23.7043 14.6595 23.5521 14.5965 23.3934 14.5965H19.6245C19.4659 14.5965 19.3137 14.6595 19.2015 14.7717C19.0893 14.8839 19.0263 15.0361 19.0263 15.1947V18.7244C19.0263 18.883 19.0893 19.0352 19.2015 19.1474C19.3137 19.2596 19.4659 19.3226 19.6245 19.3226H23.3934C23.5521 19.3226 23.7043 19.2596 23.8165 19.1474C23.9287 19.0352 23.9917 18.883 23.9917 18.7244V15.1947ZM20.2228 15.793H22.7952V18.1261H20.2228V15.793Z" fill="black"/>
<path d="M27.9968 5.95068C27.9961 5.94566 27.9961 5.94069 27.9954 5.93567C27.9925 5.91485 27.9885 5.8942 27.9834 5.87381C27.9826 5.87022 27.982 5.86669 27.9809 5.8631C27.9673 5.81398 27.9473 5.76682 27.9216 5.72281L27.9206 5.7206L25.3445 1.35942C25.1853 1.09129 24.9591 0.869099 24.6882 0.714592C24.4173 0.560084 24.1109 0.47855 23.799 0.477966H4.67565C4.38673 0.47795 4.10208 0.547663 3.84587 0.681184C3.58966 0.814705 3.36946 1.00809 3.20397 1.24491L0.107774 5.68046C0.0999372 5.69158 0.0926386 5.70301 0.0855196 5.71474C0.0836052 5.71797 0.0815711 5.72108 0.0795371 5.72431C0.0735547 5.73484 0.0675723 5.74549 0.0621882 5.75643C0.060214 5.76044 0.0582996 5.76445 0.0562057 5.7684C0.051001 5.77947 0.0459159 5.79047 0.0413095 5.8019C0.0404719 5.80405 0.0397541 5.80627 0.0389166 5.80842C0.0309035 5.82932 0.0240531 5.85065 0.0183968 5.87231C0.0165423 5.87931 0.0145681 5.88625 0.0130127 5.89337C0.0110385 5.90199 0.00948309 5.91078 0.00792766 5.91957C0.00619276 5.92938 0.00469711 5.9392 0.0034408 5.94907C0.00248361 5.95637 0.00152644 5.9636 0.000928194 5.97096C-0.000627235 5.98783 0.000270099 6.00482 0.000150451 6.02187L0.00188543 6.02409V8.5367C0.00218455 9.52637 0.803829 10.349 1.79326 10.349H1.97638V24.2891C1.97441 24.3667 1.98794 24.4438 2.01619 24.5161C2.04444 24.5883 2.08684 24.6541 2.1409 24.7098C2.19496 24.7654 2.25958 24.8097 2.33098 24.84C2.40238 24.8703 2.47911 24.886 2.55668 24.8862H25.4121C25.5723 24.8871 25.7264 24.8249 25.8411 24.7133C25.9559 24.6016 26.0222 24.4492 26.0257 24.2891V10.349H26.2088C27.1983 10.349 27.9999 9.52637 27.9999 8.53676V6.02415C28.0003 5.99962 27.9993 5.97508 27.9968 5.95068ZM4.18509 1.93845C4.23981 1.85845 4.31291 1.79272 4.39826 1.74679C4.48361 1.70085 4.57873 1.67605 4.67565 1.67445H23.799C23.9036 1.67629 24.006 1.70508 24.0962 1.75802C24.1865 1.81096 24.2615 1.88627 24.3141 1.97668L26.3568 5.44337H1.74438L4.18509 1.93845ZM16.753 23.6897H11.2491V15.5537H16.753V23.6897ZM24.8292 23.6897H17.9494V14.961C17.9448 14.7996 17.8776 14.6463 17.7619 14.5336C17.6462 14.4209 17.4913 14.3576 17.3298 14.3572H10.6389C10.5607 14.3581 10.4834 14.3744 10.4115 14.4053C10.3397 14.4362 10.2746 14.481 10.2201 14.5371C10.1656 14.5932 10.1228 14.6596 10.094 14.7323C10.0653 14.8051 10.0512 14.8828 10.0526 14.961V23.6897H3.17287V10.349H24.8292V23.6897ZM26.2088 9.15247H1.79326C1.63325 9.14818 1.48132 9.08127 1.37013 8.96614C1.25894 8.851 1.19737 8.69682 1.19867 8.53676V6.63986H26.8034V8.53676C26.8047 8.69682 26.7431 8.851 26.632 8.96614C26.5208 9.08127 26.3688 9.14818 26.2088 9.15247Z" fill="black"/>
<path d="M8.91596 15.1947C8.91596 15.0361 8.85293 14.8839 8.74074 14.7717C8.62855 14.6595 8.47638 14.5965 8.31772 14.5965H4.5488C4.39013 14.5965 4.23797 14.6595 4.12577 14.7717C4.01358 14.8839 3.95055 15.0361 3.95055 15.1947V18.7244C3.95055 18.883 4.01358 19.0352 4.12577 19.1474C4.23797 19.2596 4.39013 19.3226 4.5488 19.3226H8.31772C8.47638 19.3226 8.62855 19.2596 8.74074 19.1474C8.85293 19.0352 8.91596 18.883 8.91596 18.7244V15.1947ZM5.14704 15.793H7.71948V18.1261H5.14704V15.793Z" stroke="#78909C" stroke-width="2" mask="url(#path-1-inside-1)"/>
<path d="M23.9917 15.1947C23.9917 15.0361 23.9287 14.8839 23.8165 14.7717C23.7043 14.6595 23.5521 14.5965 23.3934 14.5965H19.6245C19.4659 14.5965 19.3137 14.6595 19.2015 14.7717C19.0893 14.8839 19.0263 15.0361 19.0263 15.1947V18.7244C19.0263 18.883 19.0893 19.0352 19.2015 19.1474C19.3137 19.2596 19.4659 19.3226 19.6245 19.3226H23.3934C23.5521 19.3226 23.7043 19.2596 23.8165 19.1474C23.9287 19.0352 23.9917 18.883 23.9917 18.7244V15.1947ZM20.2228 15.793H22.7952V18.1261H20.2228V15.793Z" stroke="#78909C" stroke-width="2" mask="url(#path-1-inside-1)"/>
<path d="M27.9968 5.95068C27.9961 5.94566 27.9961 5.94069 27.9954 5.93567C27.9925 5.91485 27.9885 5.8942 27.9834 5.87381C27.9826 5.87022 27.982 5.86669 27.9809 5.8631C27.9673 5.81398 27.9473 5.76682 27.9216 5.72281L27.9206 5.7206L25.3445 1.35942C25.1853 1.09129 24.9591 0.869099 24.6882 0.714592C24.4173 0.560084 24.1109 0.47855 23.799 0.477966H4.67565C4.38673 0.47795 4.10208 0.547663 3.84587 0.681184C3.58966 0.814705 3.36946 1.00809 3.20397 1.24491L0.107774 5.68046C0.0999372 5.69158 0.0926386 5.70301 0.0855196 5.71474C0.0836052 5.71797 0.0815711 5.72108 0.0795371 5.72431C0.0735547 5.73484 0.0675723 5.74549 0.0621882 5.75643C0.060214 5.76044 0.0582996 5.76445 0.0562057 5.7684C0.051001 5.77947 0.0459159 5.79047 0.0413095 5.8019C0.0404719 5.80405 0.0397541 5.80627 0.0389166 5.80842C0.0309035 5.82932 0.0240531 5.85065 0.0183968 5.87231C0.0165423 5.87931 0.0145681 5.88625 0.0130127 5.89337C0.0110385 5.90199 0.00948309 5.91078 0.00792766 5.91957C0.00619276 5.92938 0.00469711 5.9392 0.0034408 5.94907C0.00248361 5.95637 0.00152644 5.9636 0.000928194 5.97096C-0.000627235 5.98783 0.000270099 6.00482 0.000150451 6.02187L0.00188543 6.02409V8.5367C0.00218455 9.52637 0.803829 10.349 1.79326 10.349H1.97638V24.2891C1.97441 24.3667 1.98794 24.4438 2.01619 24.5161C2.04444 24.5883 2.08684 24.6541 2.1409 24.7098C2.19496 24.7654 2.25958 24.8097 2.33098 24.84C2.40238 24.8703 2.47911 24.886 2.55668 24.8862H25.4121C25.5723 24.8871 25.7264 24.8249 25.8411 24.7133C25.9559 24.6016 26.0222 24.4492 26.0257 24.2891V10.349H26.2088C27.1983 10.349 27.9999 9.52637 27.9999 8.53676V6.02415C28.0003 5.99962 27.9993 5.97508 27.9968 5.95068ZM4.18509 1.93845C4.23981 1.85845 4.31291 1.79272 4.39826 1.74679C4.48361 1.70085 4.57873 1.67605 4.67565 1.67445H23.799C23.9036 1.67629 24.006 1.70508 24.0962 1.75802C24.1865 1.81096 24.2615 1.88627 24.3141 1.97668L26.3568 5.44337H1.74438L4.18509 1.93845ZM16.753 23.6897H11.2491V15.5537H16.753V23.6897ZM24.8292 23.6897H17.9494V14.961C17.9448 14.7996 17.8776 14.6463 17.7619 14.5336C17.6462 14.4209 17.4913 14.3576 17.3298 14.3572H10.6389C10.5607 14.3581 10.4834 14.3744 10.4115 14.4053C10.3397 14.4362 10.2746 14.481 10.2201 14.5371C10.1656 14.5932 10.1228 14.6596 10.094 14.7323C10.0653 14.8051 10.0512 14.8828 10.0526 14.961V23.6897H3.17287V10.349H24.8292V23.6897ZM26.2088 9.15247H1.79326C1.63325 9.14818 1.48132 9.08127 1.37013 8.96614C1.25894 8.851 1.19737 8.69682 1.19867 8.53676V6.63986H26.8034V8.53676C26.8047 8.69682 26.7431 8.851 26.632 8.96614C26.5208 9.08127 26.3688 9.14818 26.2088 9.15247Z" stroke="#78909C" stroke-width="2" mask="url(#path-1-inside-1)"/>
</svg>
